<svg xmlns="http://www.w3.org/2000/svg" width="900" height="560" viewBox="0 0 900 560">
<rect width="900" height="560" fill="#0e1116"/>
<line x1="0" y1="0" x2="0" y2="560" stroke="#2a333f" stroke-width="1"/>
<text x="2" y="14" font-family="sans-serif" font-size="10" fill="#607d8b">0</text>
<line x1="24" y1="0" x2="24" y2="560" stroke="#1c222b" stroke-width="1"/>
<text x="26" y="14" font-family="sans-serif" font-size="10" fill="#607d8b">24</text>
<line x1="48" y1="0" x2="48" y2="560" stroke="#1c222b" stroke-width="1"/>
<text x="50" y="14" font-family="sans-serif" font-size="10" fill="#607d8b">48</text>
<line x1="72" y1="0" x2="72" y2="560" stroke="#1c222b" stroke-width="1"/>
<text x="74" y="14" font-family="sans-serif" font-size="10" fill="#607d8b">72</text>
<line x1="96" y1="0" x2="96" y2="560" stroke="#1c222b" stroke-width="1"/>
<text x="98" y="14" font-family="sans-serif" font-size="10" fill="#607d8b">96</text>
<line x1="120" y1="0" x2="120" y2="560" stroke="#2a333f" stroke-width="1"/>
<text x="122" y="14" font-family="sans-serif" font-size="10" fill="#607d8b">120</text>
<line x1="144" y1="0" x2="144" y2="560" stroke="#1c222b" stroke-width="1"/>
<text x="146" y="14" font-family="sans-serif" font-size="10" fill="#607d8b">144</text>
<line x1="168" y1="0" x2="168" y2="560" stroke="#1c222b" stroke-width="1"/>
<text x="170" y="14" font-family="sans-serif" font-size="10" fill="#607d8b">168</text>
<line x1="192" y1="0" x2="192" y2="560" stroke="#1c222b" stroke-width="1"/>
<text x="194" y="14" font-family="sans-serif" font-size="10" fill="#607d8b">192</text>
<line x1="216" y1="0" x2="216" y2="560" stroke="#1c222b" stroke-width="1"/>
<text x="218" y="14" font-family="sans-serif" font-size="10" fill="#607d8b">216</text>
<line x1="240" y1="0" x2="240" y2="560" stroke="#2a333f" stroke-width="1"/>
<text x="242" y="14" font-family="sans-serif" font-size="10" fill="#607d8b">240</text>
<line x1="264" y1="0" x2="264" y2="560" stroke="#1c222b" stroke-width="1"/>
<text x="266" y="14" font-family="sans-serif" font-size="10" fill="#607d8b">264</text>
<line x1="288" y1="0" x2="288" y2="560" stroke="#1c222b" stroke-width="1"/>
<text x="290" y="14" font-family="sans-serif" font-size="10" fill="#607d8b">288</text>
<line x1="312" y1="0" x2="312" y2="560" stroke="#1c222b" stroke-width="1"/>
<text x="314" y="14" font-family="sans-serif" font-size="10" fill="#607d8b">312</text>
<line x1="336" y1="0" x2="336" y2="560" stroke="#1c222b" stroke-width="1"/>
<text x="338" y="14" font-family="sans-serif" font-size="10" fill="#607d8b">336</text>
<line x1="360" y1="0" x2="360" y2="560" stroke="#2a333f" stroke-width="1"/>
<text x="362" y="14" font-family="sans-serif" font-size="10" fill="#607d8b">360</text>
<line x1="384" y1="0" x2="384" y2="560" stroke="#1c222b" stroke-width="1"/>
<text x="386" y="14" font-family="sans-serif" font-size="10" fill="#607d8b">384</text>
<line x1="408" y1="0" x2="408" y2="560" stroke="#1c222b" stroke-width="1"/>
<text x="410" y="14" font-family="sans-serif" font-size="10" fill="#607d8b">408</text>
<line x1="432" y1="0" x2="432" y2="560" stroke="#1c222b" stroke-width="1"/>
<text x="434" y="14" font-family="sans-serif" font-size="10" fill="#607d8b">432</text>
<line x1="456" y1="0" x2="456" y2="560" stroke="#1c222b" stroke-width="1"/>
<text x="458" y="14" font-family="sans-serif" font-size="10" fill="#607d8b">456</text>
<line x1="480" y1="0" x2="480" y2="560" stroke="#2a333f" stroke-width="1"/>
<text x="482" y="14" font-family="sans-serif" font-size="10" fill="#607d8b">480</text>
<line x1="504" y1="0" x2="504" y2="560" stroke="#1c222b" stroke-width="1"/>
<text x="506" y="14" font-family="sans-serif" font-size="10" fill="#607d8b">504</text>
<line x1="528" y1="0" x2="528" y2="560" stroke="#1c222b" stroke-width="1"/>
<text x="530" y="14" font-family="sans-serif" font-size="10" fill="#607d8b">528</text>
<line x1="552" y1="0" x2="552" y2="560" stroke="#1c222b" stroke-width="1"/>
<text x="554" y="14" font-family="sans-serif" font-size="10" fill="#607d8b">552</text>
<line x1="576" y1="0" x2="576" y2="560" stroke="#1c222b" stroke-width="1"/>
<text x="578" y="14" font-family="sans-serif" font-size="10" fill="#607d8b">576</text>
<line x1="600" y1="0" x2="600" y2="560" stroke="#2a333f" stroke-width="1"/>
<text x="602" y="14" font-family="sans-serif" font-size="10" fill="#607d8b">600</text>
<line x1="624" y1="0" x2="624" y2="560" stroke="#1c222b" stroke-width="1"/>
<text x="626" y="14" font-family="sans-serif" font-size="10" fill="#607d8b">624</text>
<line x1="648" y1="0" x2="648" y2="560" stroke="#1c222b" stroke-width="1"/>
<text x="650" y="14" font-family="sans-serif" font-size="10" fill="#607d8b">648</text>
<line x1="672" y1="0" x2="672" y2="560" stroke="#1c222b" stroke-width="1"/>
<text x="674" y="14" font-family="sans-serif" font-size="10" fill="#607d8b">672</text>
<line x1="696" y1="0" x2="696" y2="560" stroke="#1c222b" stroke-width="1"/>
<text x="698" y="14" font-family="sans-serif" font-size="10" fill="#607d8b">696</text>
<line x1="720" y1="0" x2="720" y2="560" stroke="#2a333f" stroke-width="1"/>
<text x="722" y="14" font-family="sans-serif" font-size="10" fill="#607d8b">720</text>
<line x1="744" y1="0" x2="744" y2="560" stroke="#1c222b" stroke-width="1"/>
<text x="746" y="14" font-family="sans-serif" font-size="10" fill="#607d8b">744</text>
<line x1="768" y1="0" x2="768" y2="560" stroke="#1c222b" stroke-width="1"/>
<text x="770" y="14" font-family="sans-serif" font-size="10" fill="#607d8b">768</text>
<line x1="792" y1="0" x2="792" y2="560" stroke="#1c222b" stroke-width="1"/>
<text x="794" y="14" font-family="sans-serif" font-size="10" fill="#607d8b">792</text>
<line x1="816" y1="0" x2="816" y2="560" stroke="#1c222b" stroke-width="1"/>
<text x="818" y="14" font-family="sans-serif" font-size="10" fill="#607d8b">816</text>
<line x1="840" y1="0" x2="840" y2="560" stroke="#2a333f" stroke-width="1"/>
<text x="842" y="14" font-family="sans-serif" font-size="10" fill="#607d8b">840</text>
<line x1="864" y1="0" x2="864" y2="560" stroke="#1c222b" stroke-width="1"/>
<text x="866" y="14" font-family="sans-serif" font-size="10" fill="#607d8b">864</text>
<line x1="888" y1="0" x2="888" y2="560" stroke="#1c222b" stroke-width="1"/>
<text x="890" y="14" font-family="sans-serif" font-size="10" fill="#607d8b">888</text>
<line x1="0" y1="0" x2="900" y2="0" stroke="#2a333f" stroke-width="1"/>
<text x="2" y="-2" font-family="sans-serif" font-size="10" fill="#607d8b">0</text>
<line x1="0" y1="24" x2="900" y2="24" stroke="#1c222b" stroke-width="1"/>
<text x="2" y="22" font-family="sans-serif" font-size="10" fill="#607d8b">24</text>
<line x1="0" y1="48" x2="900" y2="48" stroke="#1c222b" stroke-width="1"/>
<text x="2" y="46" font-family="sans-serif" font-size="10" fill="#607d8b">48</text>
<line x1="0" y1="72" x2="900" y2="72" stroke="#1c222b" stroke-width="1"/>
<text x="2" y="70" font-family="sans-serif" font-size="10" fill="#607d8b">72</text>
<line x1="0" y1="96" x2="900" y2="96" stroke="#1c222b" stroke-width="1"/>
<text x="2" y="94" font-family="sans-serif" font-size="10" fill="#607d8b">96</text>
<line x1="0" y1="120" x2="900" y2="120" stroke="#2a333f" stroke-width="1"/>
<text x="2" y="118" font-family="sans-serif" font-size="10" fill="#607d8b">120</text>
<line x1="0" y1="144" x2="900" y2="144" stroke="#1c222b" stroke-width="1"/>
<text x="2" y="142" font-family="sans-serif" font-size="10" fill="#607d8b">144</text>
<line x1="0" y1="168" x2="900" y2="168" stroke="#1c222b" stroke-width="1"/>
<text x="2" y="166" font-family="sans-serif" font-size="10" fill="#607d8b">168</text>
<line x1="0" y1="192" x2="900" y2="192" stroke="#1c222b" stroke-width="1"/>
<text x="2" y="190" font-family="sans-serif" font-size="10" fill="#607d8b">192</text>
<line x1="0" y1="216" x2="900" y2="216" stroke="#1c222b" stroke-width="1"/>
<text x="2" y="214" font-family="sans-serif" font-size="10" fill="#607d8b">216</text>
<line x1="0" y1="240" x2="900" y2="240" stroke="#2a333f" stroke-width="1"/>
<text x="2" y="238" font-family="sans-serif" font-size="10" fill="#607d8b">240</text>
<line x1="0" y1="264" x2="900" y2="264" stroke="#1c222b" stroke-width="1"/>
<text x="2" y="262" font-family="sans-serif" font-size="10" fill="#607d8b">264</text>
<line x1="0" y1="288" x2="900" y2="288" stroke="#1c222b" stroke-width="1"/>
<text x="2" y="286" font-family="sans-serif" font-size="10" fill="#607d8b">288</text>
<line x1="0" y1="312" x2="900" y2="312" stroke="#1c222b" stroke-width="1"/>
<text x="2" y="310" font-family="sans-serif" font-size="10" fill="#607d8b">312</text>
<line x1="0" y1="336" x2="900" y2="336" stroke="#1c222b" stroke-width="1"/>
<text x="2" y="334" font-family="sans-serif" font-size="10" fill="#607d8b">336</text>
<line x1="0" y1="360" x2="900" y2="360" stroke="#2a333f" stroke-width="1"/>
<text x="2" y="358" font-family="sans-serif" font-size="10" fill="#607d8b">360</text>
<line x1="0" y1="384" x2="900" y2="384" stroke="#1c222b" stroke-width="1"/>
<text x="2" y="382" font-family="sans-serif" font-size="10" fill="#607d8b">384</text>
<line x1="0" y1="408" x2="900" y2="408" stroke="#1c222b" stroke-width="1"/>
<text x="2" y="406" font-family="sans-serif" font-size="10" fill="#607d8b">408</text>
<line x1="0" y1="432" x2="900" y2="432" stroke="#1c222b" stroke-width="1"/>
<text x="2" y="430" font-family="sans-serif" font-size="10" fill="#607d8b">432</text>
<line x1="0" y1="456" x2="900" y2="456" stroke="#1c222b" stroke-width="1"/>
<text x="2" y="454" font-family="sans-serif" font-size="10" fill="#607d8b">456</text>
<line x1="0" y1="480" x2="900" y2="480" stroke="#2a333f" stroke-width="1"/>
<text x="2" y="478" font-family="sans-serif" font-size="10" fill="#607d8b">480</text>
<line x1="0" y1="504" x2="900" y2="504" stroke="#1c222b" stroke-width="1"/>
<text x="2" y="502" font-family="sans-serif" font-size="10" fill="#607d8b">504</text>
<line x1="0" y1="528" x2="900" y2="528" stroke="#1c222b" stroke-width="1"/>
<text x="2" y="526" font-family="sans-serif" font-size="10" fill="#607d8b">528</text>
<line x1="0" y1="552" x2="900" y2="552" stroke="#1c222b" stroke-width="1"/>
<text x="2" y="550" font-family="sans-serif" font-size="10" fill="#607d8b">552</text>
<rect x="100" y="120" width="200" height="110" rx="8" ry="8" fill="#1a212b" stroke="#34414d"/>
<text x="200.0" y="138" text-anchor="middle" font-family="sans-serif" font-size="14" fill="#64b5f6">Source</text>
<circle cx="100" cy="175" r="4" fill="#34414d"/>
<text x="92" y="179" font-family="sans-serif" font-size="10" fill="#eceff1" text-anchor="end">in</text>
<circle cx="300" cy="175" r="4" fill="#34414d"/>
<text x="308" y="179" font-family="sans-serif" font-size="10" fill="#eceff1" text-anchor="start">out</text>
<rect x="520" y="280" width="200" height="110" rx="8" ry="8" fill="#1a212b" stroke="#34414d"/>
<text x="620.0" y="298" text-anchor="middle" font-family="sans-serif" font-size="14" fill="#64b5f6">Filter</text>
<circle cx="520" cy="335" r="4" fill="#34414d"/>
<text x="512" y="339" font-family="sans-serif" font-size="10" fill="#eceff1" text-anchor="end">in</text>
<circle cx="720" cy="335" r="4" fill="#34414d"/>
<text x="728" y="339" font-family="sans-serif" font-size="10" fill="#eceff1" text-anchor="start">out</text>
<path d="M300,175 C380,175 440,335 520,335" fill="none" stroke="#00B3A455" stroke-width="7.0"/>
<path d="M300,175 C380,175 440,335 520,335" fill="none" stroke="#00B3A4" stroke-width="3.5"/>
</svg>