<svg width="900" height="560" viewBox="0 0 900 560" xmlns="http://www.w3.org/2000/svg">
  <defs>
    <pattern id="grid" width="24" height="24" patternUnits="userSpaceOnUse">
      <path d="M24 0H0V24" fill="none" stroke="rgba(255,255,255,.08)" stroke-width="1"/>
    </pattern>
    <filter id="glow" x="-50%" y="-50%" width="200%" height="200%">
      <feDropShadow dx="0" dy="0" stdDeviation="3" flood-color="#9fdcff" flood-opacity="0.9"/>
    </filter>
  </defs>
  <rect width="100%" height="100%" fill="#1f2327"/>
  <rect width="100%" height="100%" fill="url(#grid)"/>

  <g transform="translate(100,120)">
    <rect rx="12" ry="12" width="200" height="110" fill="#e6e8ec" stroke="#abb2b9"/>
    <text x="16" y="32" font-family="Inter, system-ui, -apple-system" font-size="20" fill="#222">Source</text>
    <circle cx="0" cy="55" r="6" fill="#fff" stroke="#222"/>
    <circle cx="200" cy="55" r="6" fill="#fff" stroke="#222"/>
  </g>

  <g transform="translate(520,280)">
    <rect rx="12" ry="12" width="200" height="110" fill="#e6e8ec" stroke="#abb2b9"/>
    <text x="16" y="32" font-family="Inter, system-ui, -apple-system" font-size="20" fill="#222">Filter</text>
    <circle cx="0" cy="55" r="6" fill="#fff" stroke="#222"/>
    <circle cx="200" cy="55" r="6" fill="#fff" stroke="#222"/>
  </g>

  <path
    d="M 300 175 C 420 175, 400 335, 520 335"
    fill="none"
    stroke="#d8f2ff"
    stroke-width="3.5"
    stroke-linecap="round"
    filter="url(#glow)"
  />
  <path
    d="M 300 175 C 420 175, 400 335, 520 335"
    fill="none"
    stroke="transparent"
    stroke-width="14"
  />
  <text x="620" y="230" fill="#aaa" font-family="Inter" font-size="14">drag to connect…</text>
</svg>
