<?xml version="1.0" encoding="UTF-8"?>
<!-- A4 score template with print-scale metrics (millimetres). -->
<svg id="page" xmlns="http://www.w3.org/2000/svg" width="210mm" height="297mm" viewBox="0 0 210 297">
  <title>A4 Staves Template</title>
  <defs>
    <style>
      :root {
        --paper-bg: #ffffff;
        --margin-stroke: #e0e0e0;
        --staff-stroke: #111;
      }
      .margin { fill: none; stroke: var(--margin-stroke); stroke-width: 0.2; vector-effect: non-scaling-stroke; }
      .staffline { stroke: var(--staff-stroke); stroke-width: 0.2; vector-effect: non-scaling-stroke; }
      .label { font: 3px -apple-system,BlinkMacSystemFont,Segoe UI,Roboto,Helvetica,Arial,sans-serif; fill: #666; }
      .title { font: 5px -apple-system,BlinkMacSystemFont,Segoe UI,Roboto,Helvetica,Arial,sans-serif; font-weight: 600; fill: #111; }
    </style>
  </defs>

  <!-- Paper background -->
  <rect x="0" y="0" width="210" height="297" fill="var(--paper-bg)"/>

  <!-- Metrics (mm) -->
  <!-- Margins -->
  <!-- left=15, right=15, top=15, bottom=15 -->
  <!-- Header (title area) height = 25 -->
  <!-- Staff: 5 lines, spacing=1.8, line-thickness=0.2 -->
  <!-- System gap (between staves) = 12 -->

  <g id="frame">
    <rect id="margin-box" class="margin" x="15" y="15" width="180" height="267"/>
    <line class="margin" x1="15" y1="40" x2="195" y2="40" />
    <text class="label" x="16" y="38">Header 25mm</text>
  </g>

  <g id="header">
    <text class="title" x="105" y="30" text-anchor="middle">Title</text>
    <text class="label" x="105" y="35" text-anchor="middle">Composer • Subtitle</text>
  </g>

  <!-- Systems -->
  <!-- Computed: usableHeight = 267 - 25 = 242; unitHeight = staff(4*1.8=7.2) + gap(12) = 19.2; count ≈ 12 -->
  <g id="systems">
    <!-- Template generator comment: y0 = 15 + 25 = 40; for i in 0..11: baseY = 40 + i*19.2; lines at baseY + j*1.8 -->
    <!-- System 1 -->
    <g id="system-1">
      <line class="staffline" x1="15" x2="195" y1="40" y2="40"/>
      <line class="staffline" x1="15" x2="195" y1="41.8" y2="41.8"/>
      <line class="staffline" x1="15" x2="195" y1="43.6" y2="43.6"/>
      <line class="staffline" x1="15" x2="195" y1="45.4" y2="45.4"/>
      <line class="staffline" x1="15" x2="195" y1="47.2" y2="47.2"/>
    </g>
    <!-- System 2 -->
    <g id="system-2">
      <line class="staffline" x1="15" x2="195" y1="59.2" y2="59.2"/>
      <line class="staffline" x1="15" x2="195" y1="61" y2="61"/>
      <line class="staffline" x1="15" x2="195" y1="62.8" y2="62.8"/>
      <line class="staffline" x1="15" x2="195" y1="64.6" y2="64.6"/>
      <line class="staffline" x1="15" x2="195" y1="66.4" y2="66.4"/>
    </g>
    <!-- System 3 -->
    <g id="system-3">
      <line class="staffline" x1="15" x2="195" y1="78.4" y2="78.4"/>
      <line class="staffline" x1="15" x2="195" y1="80.2" y2="80.2"/>
      <line class="staffline" x1="15" x2="195" y1="82" y2="82"/>
      <line class="staffline" x1="15" x2="195" y1="83.8" y2="83.8"/>
      <line class="staffline" x1="15" x2="195" y1="85.6" y2="85.6"/>
    </g>
    <!-- System 4 -->
    <g id="system-4">
      <line class="staffline" x1="15" x2="195" y1="97.6" y2="97.6"/>
      <line class="staffline" x1="15" x2="195" y1="99.4" y2="99.4"/>
      <line class="staffline" x1="15" x2="195" y1="101.2" y2="101.2"/>
      <line class="staffline" x1="15" x2="195" y1="103" y2="103"/>
      <line class="staffline" x1="15" x2="195" y1="104.8" y2="104.8"/>
    </g>
    <!-- System 5 -->
    <g id="system-5">
      <line class="staffline" x1="15" x2="195" y1="116.8" y2="116.8"/>
      <line class="staffline" x1="15" x2="195" y1="118.6" y2="118.6"/>
      <line class="staffline" x1="15" x2="195" y1="120.4" y2="120.4"/>
      <line class="staffline" x1="15" x2="195" y1="122.2" y2="122.2"/>
      <line class="staffline" x1="15" x2="195" y1="124" y2="124"/>
    </g>
    <!-- System 6 -->
    <g id="system-6">
      <line class="staffline" x1="15" x2="195" y1="136" y2="136"/>
      <line class="staffline" x1="15" x2="195" y1="137.8" y2="137.8"/>
      <line class="staffline" x1="15" x2="195" y1="139.6" y2="139.6"/>
      <line class="staffline" x1="15" x2="195" y1="141.4" y2="141.4"/>
      <line class="staffline" x1="15" x2="195" y1="143.2" y2="143.2"/>
    </g>
    <!-- System 7 -->
    <g id="system-7">
      <line class="staffline" x1="15" x2="195" y1="155.2" y2="155.2"/>
      <line class="staffline" x1="15" x2="195" y1="157" y2="157"/>
      <line class="staffline" x1="15" x2="195" y1="158.8" y2="158.8"/>
      <line class="staffline" x1="15" x2="195" y1="160.6" y2="160.6"/>
      <line class="staffline" x1="15" x2="195" y1="162.4" y2="162.4"/>
    </g>
    <!-- System 8 -->
    <g id="system-8">
      <line class="staffline" x1="15" x2="195" y1="174.4" y2="174.4"/>
      <line class="staffline" x1="15" x2="195" y1="176.2" y2="176.2"/>
      <line class="staffline" x1="15" x2="195" y1="178" y2="178"/>
      <line class="staffline" x1="15" x2="195" y1="179.8" y2="179.8"/>
      <line class="staffline" x1="15" x2="195" y1="181.6" y2="181.6"/>
    </g>
    <!-- System 9 -->
    <g id="system-9">
      <line class="staffline" x1="15" x2="195" y1="193.6" y2="193.6"/>
      <line class="staffline" x1="15" x2="195" y1="195.4" y2="195.4"/>
      <line class="staffline" x1="15" x2="195" y1="197.2" y2="197.2"/>
      <line class="staffline" x1="15" x2="195" y1="199" y2="199"/>
      <line class="staffline" x1="15" x2="195" y1="200.8" y2="200.8"/>
    </g>
    <!-- System 10 -->
    <g id="system-10">
      <line class="staffline" x1="15" x2="195" y1="212.8" y2="212.8"/>
      <line class="staffline" x1="15" x2="195" y1="214.6" y2="214.6"/>
      <line class="staffline" x1="15" x2="195" y1="216.4" y2="216.4"/>
      <line class="staffline" x1="15" x2="195" y1="218.2" y2="218.2"/>
      <line class="staffline" x1="15" x2="195" y1="220" y2="220"/>
    </g>
    <!-- System 11 -->
    <g id="system-11">
      <line class="staffline" x1="15" x2="195" y1="232" y2="232"/>
      <line class="staffline" x1="15" x2="195" y1="233.8" y2="233.8"/>
      <line class="staffline" x1="15" x2="195" y1="235.6" y2="235.6"/>
      <line class="staffline" x1="15" x2="195" y1="237.4" y2="237.4"/>
      <line class="staffline" x1="15" x2="195" y1="239.2" y2="239.2"/>
    </g>
    <!-- System 12 -->
    <g id="system-12">
      <line class="staffline" x1="15" x2="195" y1="251.2" y2="251.2"/>
      <line class="staffline" x1="15" x2="195" y1="253" y2="253"/>
      <line class="staffline" x1="15" x2="195" y1="254.8" y2="254.8"/>
      <line class="staffline" x1="15" x2="195" y1="256.6" y2="256.6"/>
      <line class="staffline" x1="15" x2="195" y1="258.4" y2="258.4"/>
    </g>
  </g>

  <!-- Legend (optional) -->
  <g id="legend">
    <text class="label" x="15" y="292">Margins: 15mm • Header: 25mm • Staff spacing: 1.8mm • Line: 0.2mm • System gap: 12mm • Systems: 12</text>
  </g>
</svg>

